<svg xmlns="http://www.w3.org/2000/svg" xmlns:xlink="http://www.w3.org/1999/xlink" width="500" zoomAndPan="magnify" viewBox="0 0 375 374.999991" height="500" preserveAspectRatio="xMidYMid meet" version="1.2"><defs><clipPath id="5c78145a53"><path d="M 2.25 166.445312 L 361.675781 166.445312 L 361.675781 208.144531 L 2.25 208.144531 Z M 2.25 166.445312 "/></clipPath></defs><g id="eda8fd11d6"><g style="fill:#000000;fill-opacity:1;"><g transform="translate(156.951777, 264.132096)"><path style="stroke:none" d="M 8.0625 -3.796875 L 8.0625 0 L 49.84375 0 L 49.84375 -3.796875 L 30.859375 -3.796875 L 30.859375 -151.65625 L 83.78125 0 L 86.875 0 L 139.796875 -152.609375 L 139.796875 -3.796875 L 120.8125 -3.796875 L 120.8125 0 L 181.8125 0 L 181.8125 -3.796875 L 162.8125 -3.796875 L 162.8125 -155.703125 L 181.8125 -155.703125 L 181.8125 -159.5 L 137.890625 -159.5 L 95.65625 -37.5 L 51.984375 -159.5 L 8.0625 -159.5 L 8.0625 -155.703125 L 27.0625 -155.703125 L 27.0625 -3.796875 Z M 8.0625 -3.796875 "/></g></g><g style="fill:#000000;fill-opacity:1;"><g transform="translate(29.31066, 267.639139)"><path style="stroke:none" d="M 87.046875 -3.859375 L 87.046875 -158.171875 L 107.78125 -158.171875 C 115.164062 -158.171875 121.628906 -154.390625 127.171875 -146.828125 C 132.722656 -139.273438 136.382812 -128.988281 138.15625 -115.96875 L 143.21875 -115.96875 L 139.609375 -157.921875 C 139.441406 -160.660156 137.832031 -162.03125 134.78125 -162.03125 L 15.90625 -162.03125 C 12.851562 -162.03125 11.25 -160.660156 11.09375 -157.921875 L 7.46875 -115.96875 L 12.53125 -115.96875 C 14.300781 -128.988281 17.957031 -139.273438 23.5 -146.828125 C 29.050781 -154.390625 35.523438 -158.171875 42.921875 -158.171875 L 63.65625 -158.171875 L 63.65625 -3.859375 L 42.921875 -3.859375 L 42.921875 0 L 107.78125 0 L 107.78125 -3.859375 Z M 87.046875 -3.859375 "/></g></g><g clip-rule="nonzero" clip-path="url(#5c78145a53)"><path style=" stroke:none;fill-rule:nonzero;fill:#fafafa;fill-opacity:1;" d="M 2.25 166.445312 L 361.757812 166.445312 L 361.757812 208.144531 L 2.25 208.144531 Z M 2.25 166.445312 "/></g><g style="fill:#000000;fill-opacity:1;"><g transform="translate(85.898618, 193.046411)"><path style="stroke:none" d="M 4.25 -10.59375 L 0.078125 -10.59375 L 0.078125 -13.0625 L 11.453125 -13.0625 L 11.453125 -10.59375 L 7.28125 -10.59375 L 7.28125 0 L 4.25 0 Z M 4.25 -10.59375 "/></g></g><g style="fill:#000000;fill-opacity:1;"><g transform="translate(103.887472, 193.046411)"><path style="stroke:none" d="M 10.15625 -2.796875 L 4.078125 -2.796875 L 2.921875 0 L -0.171875 0 L 5.65625 -13.0625 L 8.640625 -13.0625 L 14.484375 0 L 11.3125 0 Z M 9.203125 -5.09375 L 7.125 -10.09375 L 5.0625 -5.09375 Z M 9.203125 -5.09375 "/></g></g><g style="fill:#000000;fill-opacity:1;"><g transform="translate(124.638044, 193.046411)"><path style="stroke:none" d="M 1.546875 -13.0625 L 4.578125 -13.0625 L 4.578125 0 L 1.546875 0 Z M 1.546875 -13.0625 "/></g></g><g style="fill:#000000;fill-opacity:1;"><g transform="translate(137.215425, 193.046411)"><path style="stroke:none" d="M 1.546875 -13.0625 L 4.578125 -13.0625 L 4.578125 -2.46875 L 11.125 -2.46875 L 11.125 0 L 1.546875 0 Z M 1.546875 -13.0625 "/></g></g><g style="fill:#000000;fill-opacity:1;"><g transform="translate(154.943041, 193.046411)"><path style="stroke:none" d="M 7.875 0.21875 C 6.519531 0.21875 5.296875 -0.0703125 4.203125 -0.65625 C 3.117188 -1.238281 2.269531 -2.039062 1.65625 -3.0625 C 1.039062 -4.09375 0.734375 -5.25 0.734375 -6.53125 C 0.734375 -7.8125 1.039062 -8.960938 1.65625 -9.984375 C 2.269531 -11.015625 3.117188 -11.820312 4.203125 -12.40625 C 5.296875 -12.988281 6.519531 -13.28125 7.875 -13.28125 C 9.226562 -13.28125 10.445312 -12.988281 11.53125 -12.40625 C 12.613281 -11.820312 13.460938 -11.015625 14.078125 -9.984375 C 14.703125 -8.960938 15.015625 -7.8125 15.015625 -6.53125 C 15.015625 -5.25 14.703125 -4.09375 14.078125 -3.0625 C 13.460938 -2.039062 12.613281 -1.238281 11.53125 -0.65625 C 10.445312 -0.0703125 9.226562 0.21875 7.875 0.21875 Z M 7.875 -2.34375 C 8.644531 -2.34375 9.335938 -2.519531 9.953125 -2.875 C 10.578125 -3.238281 11.066406 -3.734375 11.421875 -4.359375 C 11.773438 -4.992188 11.953125 -5.71875 11.953125 -6.53125 C 11.953125 -7.34375 11.773438 -8.0625 11.421875 -8.6875 C 11.066406 -9.320312 10.578125 -9.816406 9.953125 -10.171875 C 9.335938 -10.523438 8.644531 -10.703125 7.875 -10.703125 C 7.101562 -10.703125 6.40625 -10.523438 5.78125 -10.171875 C 5.15625 -9.816406 4.664062 -9.320312 4.3125 -8.6875 C 3.957031 -8.0625 3.78125 -7.34375 3.78125 -6.53125 C 3.78125 -5.71875 3.957031 -4.992188 4.3125 -4.359375 C 4.664062 -3.734375 5.15625 -3.238281 5.78125 -2.875 C 6.40625 -2.519531 7.101562 -2.34375 7.875 -2.34375 Z M 7.875 -2.34375 "/></g></g><g style="fill:#000000;fill-opacity:1;"><g transform="translate(177.149124, 193.046411)"><path style="stroke:none" d="M 9.875 0 L 7.34375 -3.640625 L 4.578125 -3.640625 L 4.578125 0 L 1.546875 0 L 1.546875 -13.0625 L 7.203125 -13.0625 C 8.359375 -13.0625 9.363281 -12.867188 10.21875 -12.484375 C 11.070312 -12.097656 11.726562 -11.550781 12.1875 -10.84375 C 12.644531 -10.132812 12.875 -9.296875 12.875 -8.328125 C 12.875 -7.347656 12.640625 -6.503906 12.171875 -5.796875 C 11.703125 -5.097656 11.039062 -4.566406 10.1875 -4.203125 L 13.109375 0 Z M 9.8125 -8.328125 C 9.8125 -9.054688 9.570312 -9.613281 9.09375 -10 C 8.625 -10.394531 7.9375 -10.59375 7.03125 -10.59375 L 4.578125 -10.59375 L 4.578125 -6.046875 L 7.03125 -6.046875 C 7.9375 -6.046875 8.625 -6.242188 9.09375 -6.640625 C 9.570312 -7.035156 9.8125 -7.597656 9.8125 -8.328125 Z M 9.8125 -8.328125 "/></g></g><g style="fill:#000000;fill-opacity:1;"><g transform="translate(197.32123, 193.046411)"><path style="stroke:none" d="M 13.4375 0 L 13.40625 -7.828125 L 9.578125 -1.375 L 8.203125 -1.375 L 4.390625 -7.671875 L 4.390625 0 L 1.546875 0 L 1.546875 -13.0625 L 4.046875 -13.0625 L 8.9375 -4.9375 L 13.75 -13.0625 L 16.234375 -13.0625 L 16.265625 0 Z M 13.4375 0 "/></g></g><g style="fill:#000000;fill-opacity:1;"><g transform="translate(221.598601, 193.046411)"><path style="stroke:none" d="M 10.15625 -2.796875 L 4.078125 -2.796875 L 2.921875 0 L -0.171875 0 L 5.65625 -13.0625 L 8.640625 -13.0625 L 14.484375 0 L 11.3125 0 Z M 9.203125 -5.09375 L 7.125 -10.09375 L 5.0625 -5.09375 Z M 9.203125 -5.09375 "/></g></g><g style="fill:#000000;fill-opacity:1;"><g transform="translate(242.349172, 193.046411)"><path style="stroke:none" d="M 4.25 -10.59375 L 0.078125 -10.59375 L 0.078125 -13.0625 L 11.453125 -13.0625 L 11.453125 -10.59375 L 7.28125 -10.59375 L 7.28125 0 L 4.25 0 Z M 4.25 -10.59375 "/></g></g><g style="fill:#000000;fill-opacity:1;"><g transform="translate(260.338026, 193.046411)"><path style="stroke:none" d="M 11.65625 -2.421875 L 11.65625 0 L 1.546875 0 L 1.546875 -13.0625 L 11.421875 -13.0625 L 11.421875 -10.640625 L 4.546875 -10.640625 L 4.546875 -7.796875 L 10.609375 -7.796875 L 10.609375 -5.453125 L 4.546875 -5.453125 L 4.546875 -2.421875 Z M 11.65625 -2.421875 "/></g></g><g style="fill:#000000;fill-opacity:1;"><g transform="translate(131.001549, 295.350519)"><path style="stroke:none" d="M 4.90625 0.078125 C 4.09375 0.078125 3.359375 -0.101562 2.703125 -0.46875 C 2.054688 -0.832031 1.546875 -1.332031 1.171875 -1.96875 C 0.796875 -2.601562 0.609375 -3.316406 0.609375 -4.109375 C 0.609375 -4.898438 0.796875 -5.613281 1.171875 -6.25 C 1.546875 -6.894531 2.0625 -7.394531 2.71875 -7.75 C 3.375 -8.113281 4.109375 -8.296875 4.921875 -8.296875 C 5.535156 -8.296875 6.097656 -8.191406 6.609375 -7.984375 C 7.128906 -7.785156 7.570312 -7.488281 7.9375 -7.09375 L 7.375 -6.546875 C 6.738281 -7.191406 5.929688 -7.515625 4.953125 -7.515625 C 4.296875 -7.515625 3.703125 -7.363281 3.171875 -7.0625 C 2.640625 -6.769531 2.222656 -6.363281 1.921875 -5.84375 C 1.617188 -5.332031 1.46875 -4.753906 1.46875 -4.109375 C 1.46875 -3.472656 1.617188 -2.894531 1.921875 -2.375 C 2.222656 -1.851562 2.640625 -1.441406 3.171875 -1.140625 C 3.703125 -0.847656 4.296875 -0.703125 4.953125 -0.703125 C 5.929688 -0.703125 6.738281 -1.03125 7.375 -1.6875 L 7.9375 -1.140625 C 7.570312 -0.742188 7.128906 -0.441406 6.609375 -0.234375 C 6.085938 -0.0234375 5.519531 0.078125 4.90625 0.078125 Z M 4.90625 0.078125 "/></g></g><g style="fill:#000000;fill-opacity:1;"><g transform="translate(147.645492, 295.350519)"><path style="stroke:none" d="M 4.65625 0.078125 C 3.59375 0.078125 2.757812 -0.226562 2.15625 -0.84375 C 1.5625 -1.457031 1.265625 -2.347656 1.265625 -3.515625 L 1.265625 -8.21875 L 2.140625 -8.21875 L 2.140625 -3.546875 C 2.140625 -2.585938 2.351562 -1.875 2.78125 -1.40625 C 3.21875 -0.9375 3.84375 -0.703125 4.65625 -0.703125 C 5.476562 -0.703125 6.101562 -0.9375 6.53125 -1.40625 C 6.957031 -1.875 7.171875 -2.585938 7.171875 -3.546875 L 7.171875 -8.21875 L 8.03125 -8.21875 L 8.03125 -3.515625 C 8.03125 -2.347656 7.734375 -1.457031 7.140625 -0.84375 C 6.546875 -0.226562 5.71875 0.078125 4.65625 0.078125 Z M 4.65625 0.078125 "/></g></g><g style="fill:#000000;fill-opacity:1;"><g transform="translate(165.147496, 295.350519)"><path style="stroke:none" d="M 6.953125 0 L 5.078125 -2.640625 C 4.867188 -2.617188 4.648438 -2.609375 4.421875 -2.609375 L 2.203125 -2.609375 L 2.203125 0 L 1.34375 0 L 1.34375 -8.21875 L 4.421875 -8.21875 C 5.472656 -8.21875 6.296875 -7.96875 6.890625 -7.46875 C 7.484375 -6.96875 7.78125 -6.28125 7.78125 -5.40625 C 7.78125 -4.757812 7.613281 -4.210938 7.28125 -3.765625 C 6.957031 -3.328125 6.5 -3.007812 5.90625 -2.8125 L 7.90625 0 Z M 4.390625 -3.34375 C 5.203125 -3.34375 5.820312 -3.523438 6.25 -3.890625 C 6.6875 -4.253906 6.90625 -4.757812 6.90625 -5.40625 C 6.90625 -6.070312 6.6875 -6.582031 6.25 -6.9375 C 5.820312 -7.289062 5.203125 -7.46875 4.390625 -7.46875 L 2.203125 -7.46875 L 2.203125 -3.34375 Z M 4.390625 -3.34375 "/></g></g><g style="fill:#000000;fill-opacity:1;"><g transform="translate(181.838445, 295.350519)"><path style="stroke:none" d="M 2.9375 -7.46875 L 0.046875 -7.46875 L 0.046875 -8.21875 L 6.703125 -8.21875 L 6.703125 -7.46875 L 3.8125 -7.46875 L 3.8125 0 L 2.9375 0 Z M 2.9375 -7.46875 "/></g></g><g style="fill:#000000;fill-opacity:1;"><g transform="translate(196.778016, 295.350519)"><path style="stroke:none" d="M 6.5 -2.203125 L 1.921875 -2.203125 L 0.921875 0 L 0.03125 0 L 3.78125 -8.21875 L 4.640625 -8.21875 L 8.40625 0 L 7.484375 0 Z M 6.1875 -2.90625 L 4.203125 -7.3125 L 2.234375 -2.90625 Z M 6.1875 -2.90625 "/></g></g><g style="fill:#000000;fill-opacity:1;"><g transform="translate(213.398449, 295.350519)"><path style="stroke:none" d="M 1.34375 -8.21875 L 2.203125 -8.21875 L 2.203125 0 L 1.34375 0 Z M 1.34375 -8.21875 "/></g></g><g style="fill:#000000;fill-opacity:1;"><g transform="translate(225.140868, 295.350519)"><path style="stroke:none" d="M 8.21875 -8.21875 L 8.21875 0 L 7.5 0 L 2.203125 -6.671875 L 2.203125 0 L 1.34375 0 L 1.34375 -8.21875 L 2.0625 -8.21875 L 7.359375 -1.546875 L 7.359375 -8.21875 Z M 8.21875 -8.21875 "/></g></g></g></svg>